<svg width="32" height="20" viewBox="0 0 32 20" fill="none" xmlns="http://www.w3.org/2000/svg">
<path d="M24.0739 3.4705C23.4247 3.4705 22.7971 3.55815 22.1933 3.707C20.4722 1.74405 17.9669 0.5 15.1686 0.5C11.0787 0.5 7.609 3.1474 6.3188 6.83615C6.30005 6.836 6.282 6.83335 6.26325 6.83335C2.80415 6.83335 0 9.6689 0 13.1667C0 16.6644 2.80415 19.5 6.26325 19.5C7.76765 19.5 22.509 19.5 24.0739 19.5C28.4514 19.5 32 15.9116 32 11.4853C32 7.0588 28.4514 3.4705 24.0739 3.4705ZM24.0739 18.4503H6.26325C3.3885 18.4503 1.0497 16.0801 1.0497 13.1667C1.0497 10.2624 3.37395 7.8978 6.2364 7.8831C6.26085 7.88465 6.28535 7.88565 6.3102 7.88585L7.06155 7.892L7.30965 7.18275C8.4881 3.81345 11.6463 1.5497 15.1686 1.5497C17.5436 1.5497 19.8163 2.58825 21.404 4.39905L21.8248 4.879L22.4446 4.7262C22.9989 4.5895 23.5471 4.5202 24.0739 4.5202C27.8656 4.5202 30.9503 7.6447 30.9503 11.4853C30.9503 15.3258 27.8656 18.4503 24.0739 18.4503Z" fill="black"/>
</svg>
