<svg width="16" height="16" viewBox="0 0 16 16" fill="none" xmlns="http://www.w3.org/2000/svg">
<path d="M6.79999 0.799988C3.49339 0.799988 0.799988 3.49339 0.799988 6.79999C0.799988 10.1066 3.49339 12.8 6.79999 12.8C8.23789 12.8 9.55842 12.2894 10.5933 11.4418L14.1758 15.0242C14.2311 15.0818 14.2973 15.1278 14.3706 15.1594C14.4438 15.1911 14.5227 15.2078 14.6025 15.2087C14.6823 15.2095 14.7615 15.1943 14.8354 15.1642C14.9093 15.134 14.9765 15.0894 15.0329 15.0329C15.0894 14.9765 15.134 14.9093 15.1642 14.8354C15.1943 14.7615 15.2095 14.6823 15.2087 14.6025C15.2078 14.5227 15.1911 14.4438 15.1594 14.3706C15.1278 14.2973 15.0818 14.2311 15.0242 14.1758L11.4418 10.5933C12.2894 9.55842 12.8 8.23789 12.8 6.79999C12.8 3.49339 10.1066 0.799988 6.79999 0.799988ZM6.79999 1.99999C9.45806 1.99999 11.6 4.14191 11.6 6.79999C11.6 9.45806 9.45806 11.6 6.79999 11.6C4.14191 11.6 1.99999 9.45806 1.99999 6.79999C1.99999 4.14191 4.14191 1.99999 6.79999 1.99999Z" fill="black"/>
</svg>
