<svg width="34" height="30" viewBox="0 0 34 30" fill="none" xmlns="http://www.w3.org/2000/svg">
<path d="M23.62 9.23999C23.62 6.47999 21.4 4.31999 18.7 4.31999C18.1 4.31999 17.56 4.43999 17.02 4.61999C16.84 2.57999 15.16 0.899994 13.06 0.899994C10.84 0.899994 9.04003 2.69999 9.04003 4.91999C9.04003 5.39999 9.16003 5.87999 9.28003 6.29999C9.10003 6.23999 8.86003 6.23999 8.68003 6.23999C6.46003 6.23999 4.66003 8.03999 4.66003 10.26C4.66003 12.42 6.40003 14.22 8.56003 14.28H18.88C21.52 13.98 23.62 11.88 23.62 9.23999Z" fill="#91C0F8" stroke="white" stroke-width="0.72" stroke-linejoin="round"/>
<path d="M32.7 20.4C32.7 15.8 29 12.2 24.5 12.2C23.5 12.2 22.6 12.4 21.7 12.7C21.4 9.3 18.6 6.5 15.1 6.5C11.4 6.5 8.39997 9.5 8.39997 13.2C8.39997 14 8.59997 14.8 8.79997 15.5C8.49997 15.4 8.09997 15.4 7.79997 15.4C4.09997 15.4 1.09998 18.4 1.09998 22.1C1.09998 25.7 3.99998 28.7 7.59998 28.8H24.8C29.2 28.3 32.7 24.8 32.7 20.4Z" fill="#57A0EE" stroke="white" stroke-width="1.2" stroke-linejoin="round"/>
</svg>
