<svg width="18" height="15" viewBox="0 0 18 15" fill="none" xmlns="http://www.w3.org/2000/svg">
<path d="M0.384766 3.22266C0.384766 2.74089 0.505208 2.30143 0.746094 1.9043C0.986979 1.50065 1.30599 1.18164 1.70312 0.947266C2.10026 0.70638 2.5332 0.585938 3.00195 0.585938C3.47721 0.585938 3.91016 0.70638 4.30078 0.947266C4.69141 1.18164 5.00391 1.50065 5.23828 1.9043C5.47266 2.30143 5.58984 2.74089 5.58984 3.22266C5.58984 3.71094 5.47266 4.15365 5.23828 4.55078C5.00391 4.94141 4.69141 5.25391 4.30078 5.48828C3.91016 5.72266 3.47721 5.83984 3.00195 5.83984C2.5332 5.83984 2.10026 5.72266 1.70312 5.48828C1.30599 5.25391 0.986979 4.94141 0.746094 4.55078C0.505208 4.15365 0.384766 3.71094 0.384766 3.22266ZM1.75195 3.22266C1.75195 3.57422 1.87565 3.87044 2.12305 4.11133C2.37044 4.3457 2.66341 4.46289 3.00195 4.46289C3.34701 4.46289 3.63346 4.3457 3.86133 4.11133C4.0957 3.87695 4.21289 3.58073 4.21289 3.22266C4.21289 2.86458 4.0957 2.5651 3.86133 2.32422C3.63346 2.08333 3.34701 1.96289 3.00195 1.96289C2.66341 1.96289 2.37044 2.08333 2.12305 2.32422C1.87565 2.5651 1.75195 2.86458 1.75195 3.22266ZM10.9121 0.78125V15H8.22656V0.78125H10.9121ZM16.6445 6.92383V9.04297H10.209V6.92383H16.6445ZM17.3965 0.78125V2.90039H10.209V0.78125H17.3965Z" fill="black"/>
</svg>
