<svg width="43" height="40" viewBox="0 0 43 40" fill="none" xmlns="http://www.w3.org/2000/svg">
<path d="M16 26.8V30.4" stroke="#FFA500" stroke-width="2.4" stroke-linecap="round"/>
<path d="M8.36328 23.6367L5.8177 26.1823" stroke="#FFA500" stroke-width="2.4" stroke-linecap="round"/>
<path d="M5.19995 16H1.59995" stroke="#FFA500" stroke-width="2.4" stroke-linecap="round"/>
<path d="M8.36328 8.36325L5.8177 5.81767" stroke="#FFA500" stroke-width="2.4" stroke-linecap="round"/>
<path d="M16 5.20001V1.60001" stroke="#FFA500" stroke-width="2.4" stroke-linecap="round"/>
<path d="M23.6367 8.36325L26.1823 5.81767" stroke="#FFA500" stroke-width="2.4" stroke-linecap="round"/>
<path d="M26.7999 16H30.3999" stroke="#FFA500" stroke-width="2.4" stroke-linecap="round"/>
<path d="M23.6367 23.6367L26.1823 26.1823" stroke="#FFA500" stroke-width="2.4" stroke-linecap="round"/>
<path d="M16 22C19.3137 22 22 19.3137 22 16C22 12.6863 19.3137 10 16 10C12.6863 10 10 12.6863 10 16C10 19.3137 12.6863 22 16 22Z" fill="#FFA500" stroke="#FFA500" stroke-width="2.4"/>
<path d="M41.5449 25.09C41.5449 21.18 38.3999 18.12 34.5749 18.12C33.7249 18.12 32.9599 18.29 32.1949 18.545C31.9399 15.655 29.5599 13.275 26.5849 13.275C23.4399 13.275 20.8899 15.825 20.8899 18.97C20.8899 19.65 21.0599 20.33 21.2299 20.925C20.9749 20.84 20.6349 20.84 20.3799 20.84C17.2349 20.84 14.6849 23.39 14.6849 26.535C14.6849 29.595 17.1499 32.145 20.2099 32.23H34.8299C38.5699 31.805 41.5449 28.83 41.5449 25.09Z" fill="#57A0EE" stroke="white" stroke-width="1.275" stroke-linejoin="round"/>
<path d="M23 33.5V38.5" stroke="#57A0EE" stroke-width="1.2" stroke-linecap="round"/>
<path d="M24.7678 34.2322L21.2323 37.7678" stroke="#57A0EE" stroke-linecap="round"/>
<path d="M25.5 36H20.5" stroke="#57A0EE" stroke-linecap="round"/>
<path d="M24.7678 37.7678L21.2323 34.2322" stroke="#57A0EE" stroke-linecap="round"/>
<path d="M32 33.5V38.5" stroke="#57A0EE" stroke-width="1.2" stroke-linecap="round"/>
<path d="M33.7678 34.2322L30.2323 37.7678" stroke="#57A0EE" stroke-linecap="round"/>
<path d="M34.5 36H29.5" stroke="#57A0EE" stroke-linecap="round"/>
<path d="M33.7678 37.7678L30.2323 34.2322" stroke="#57A0EE" stroke-linecap="round"/>
</svg>
