<svg width="34" height="32" viewBox="0 0 34 32" fill="none" xmlns="http://www.w3.org/2000/svg">
<path d="M32.7 15.4C32.7 10.8 29 7.2 24.5 7.2C23.5 7.2 22.6 7.4 21.7 7.7C21.4 4.3 18.6 1.5 15.1 1.5C11.4 1.5 8.39997 4.5 8.39997 8.2C8.39997 9 8.59997 9.8 8.79997 10.5C8.49997 10.4 8.09997 10.4 7.79997 10.4C4.09997 10.4 1.09998 13.4 1.09998 17.1C1.09998 20.7 3.99998 23.7 7.59998 23.8H24.8C29.2 23.3 32.7 19.8 32.7 15.4Z" fill="#57A0EE" stroke="white" stroke-width="1.2" stroke-linejoin="round"/>
<path d="M12 25.5V30.5" stroke="#57A0EE" stroke-width="1.2" stroke-linecap="round"/>
<path d="M13.7678 26.2322L10.2322 29.7678" stroke="#57A0EE" stroke-linecap="round"/>
<path d="M14.5 28H9.5" stroke="#57A0EE" stroke-linecap="round"/>
<path d="M13.7678 29.7678L10.2322 26.2322" stroke="#57A0EE" stroke-linecap="round"/>
<path d="M21 25.5V30.5" stroke="#57A0EE" stroke-width="1.2" stroke-linecap="round"/>
<path d="M22.7678 26.2322L19.2322 29.7678" stroke="#57A0EE" stroke-linecap="round"/>
<path d="M23.5 28H18.5" stroke="#57A0EE" stroke-linecap="round"/>
<path d="M22.7678 29.7678L19.2322 26.2322" stroke="#57A0EE" stroke-linecap="round"/>
</svg>
