<svg width="34" height="40" viewBox="0 0 34 40" fill="none" xmlns="http://www.w3.org/2000/svg">
<path d="M23.62 9.23999C23.62 6.47999 21.4 4.31999 18.7 4.31999C18.1 4.31999 17.56 4.43999 17.02 4.61999C16.84 2.57999 15.16 0.899994 13.06 0.899994C10.84 0.899994 9.03997 2.69999 9.03997 4.91999C9.03997 5.39999 9.15997 5.87999 9.27997 6.29999C9.09997 6.23999 8.85997 6.23999 8.67997 6.23999C6.45997 6.23999 4.65997 8.03999 4.65997 10.26C4.65997 12.42 6.39997 14.22 8.55997 14.28H18.88C21.52 13.98 23.62 11.88 23.62 9.23999Z" fill="#91C0F8" stroke="white" stroke-width="0.72" stroke-linejoin="round"/>
<path d="M32.7 18.4C32.7 13.8 29 10.2 24.5 10.2C23.5 10.2 22.6 10.4 21.7 10.7C21.4 7.3 18.6 4.5 15.1 4.5C11.4 4.5 8.39997 7.5 8.39997 11.2C8.39997 12 8.59997 12.8 8.79997 13.5C8.49997 13.4 8.09997 13.4 7.79997 13.4C4.09997 13.4 1.09998 16.4 1.09998 20.1C1.09998 23.7 3.99998 26.7 7.59998 26.8H24.8C29.2 26.3 32.7 22.8 32.7 18.4Z" fill="#57A0EE" stroke="white" stroke-width="1.2" stroke-linejoin="round"/>
<path d="M13.1599 18.52H20.5999L15.6799 27.16H20.3599L9.79995 39.52L13.8799 30.28H9.31995L13.1599 18.52Z" fill="#FFA500" stroke="white" stroke-width="1.2"/>
</svg>
